<mxfile host="app.diagrams.net" modified="2023-11-16T00:37:58.051Z" agent="Mozilla/5.0 (Windows NT 10.0; Win64; x64) AppleWebKit/537.36 (KHTML, like Gecko) Chrome/119.0.0.0 Safari/537.36" version="21.2.1" etag="Z5BboctkmmENGIm0R5Kp">
  <diagram id="JyUQ9x8ml2F6dNzp1jw9" name="Page-1">
    <mxGraphModel dx="3274" dy="1120" grid="1" gridSize="10" guides="1" tooltips="1" connect="1" arrows="1" fold="1" page="0" pageScale="1" pageWidth="850" pageHeight="1100" background="none" math="0" shadow="0">
      <root>
        <mxCell id="0" />
        <mxCell id="1" parent="0" />
        <mxCell id="node4" value="&lt;p style=&quot;margin:0px;margin-top:4px;text-align:center;&quot;&gt;&lt;b&gt;AuthController&lt;/b&gt;&lt;/p&gt;&lt;hr size=&quot;1&quot;/&gt;&lt;p style=&quot;margin:0 0 0 4px;line-height:1.6;&quot;&gt;+ loginAuth(HttpSession, UserCredentials): ResponseEntity&amp;lt;String&amp;gt;&lt;br/&gt;+ userRegister(HttpSession, Users): ResponseEntity&amp;lt;String&amp;gt;&lt;br/&gt;+ officeAuth(HttpSession, String, String): ResponseEntity&amp;lt;String&amp;gt;&lt;/p&gt;" style="verticalAlign=top;align=left;overflow=fill;fontSize=14;fontFamily=Helvetica;html=1;rounded=0;shadow=0;comic=0;labelBackgroundColor=none;strokeWidth=1;fillColor=#fff2cc;strokeColor=#d6b656;" parent="1" vertex="1">
          <mxGeometry x="-780" y="533.5" width="461" height="120" as="geometry" />
        </mxCell>
        <mxCell id="node18" value="&lt;p style=&quot;margin:0px;margin-top:4px;text-align:center;&quot;&gt;&lt;b&gt;CategoryController&lt;/b&gt;&lt;/p&gt;&lt;hr size=&quot;1&quot;/&gt;&lt;p style=&quot;margin:0 0 0 4px;line-height:1.6;&quot;&gt;+ listCategories(): List&amp;lt;Category&amp;gt;&lt;/p&gt;" style="verticalAlign=top;align=left;overflow=fill;fontSize=14;fontFamily=Helvetica;html=1;rounded=0;shadow=0;comic=0;labelBackgroundColor=none;strokeWidth=1;fillColor=#fff2cc;strokeColor=#d6b656;" parent="1" vertex="1">
          <mxGeometry x="320" y="719" width="245" height="68" as="geometry" />
        </mxCell>
        <mxCell id="node11" value="&lt;p style=&quot;margin:0px;margin-top:4px;text-align:center;&quot;&gt;&lt;b&gt;CategoryKeywordsController&lt;/b&gt;&lt;/p&gt;&lt;hr size=&quot;1&quot;/&gt;&lt;p style=&quot;margin:0 0 0 4px;line-height:1.6;&quot;&gt; keywords: List&amp;lt;CategoryKeywords&amp;gt;&lt;/p&gt;" style="verticalAlign=top;align=left;overflow=fill;fontSize=14;fontFamily=Helvetica;html=1;rounded=0;shadow=0;comic=0;labelBackgroundColor=none;strokeWidth=1;fillColor=#fff2cc;strokeColor=#d6b656;" parent="1" vertex="1">
          <mxGeometry x="719.5" y="780" width="277" height="68" as="geometry" />
        </mxCell>
        <mxCell id="node48" value="&lt;p style=&quot;margin:0px;margin-top:4px;text-align:center;&quot;&gt;&lt;i&gt;&amp;lt;&amp;lt;interface&amp;gt;&amp;gt;&lt;/i&gt;&lt;br/&gt;&lt;b&gt;CategoryKeywordsService&lt;/b&gt;&lt;/p&gt;&lt;hr size=&quot;1&quot;/&gt;&lt;p style=&quot;margin:0 0 0 4px;line-height:1.6;&quot;&gt;+ listAll(): List&amp;lt;CategoryKeywords&amp;gt;&lt;/p&gt;" style="verticalAlign=top;align=left;overflow=fill;fontSize=14;fontFamily=Helvetica;html=1;rounded=0;shadow=0;comic=0;labelBackgroundColor=none;strokeWidth=1;" parent="1" vertex="1">
          <mxGeometry x="730" y="950" width="256" height="79" as="geometry" />
        </mxCell>
        <mxCell id="node14" value="&lt;p style=&quot;margin:0px;margin-top:4px;text-align:center;&quot;&gt;&lt;i&gt;&amp;lt;&amp;lt;interface&amp;gt;&amp;gt;&lt;/i&gt;&lt;br/&gt;&lt;b&gt;CategoryService&lt;/b&gt;&lt;/p&gt;&lt;hr size=&quot;1&quot;/&gt;&lt;p style=&quot;margin:0 0 0 4px;line-height:1.6;&quot;&gt;+ listAll(): List&amp;lt;Category&amp;gt;&lt;br/&gt;+ createCategory(Category): Category&lt;br/&gt;+ getCityOfficeID(Long): Long&lt;/p&gt;" style="verticalAlign=top;align=left;overflow=fill;fontSize=14;fontFamily=Helvetica;html=1;rounded=0;shadow=0;comic=0;labelBackgroundColor=none;strokeWidth=1;" parent="1" vertex="1">
          <mxGeometry x="320" y="890" width="273" height="139" as="geometry" />
        </mxCell>
        <mxCell id="node7" value="&lt;p style=&quot;margin:0px;margin-top:4px;text-align:center;&quot;&gt;&lt;i&gt;&amp;lt;&amp;lt;interface&amp;gt;&amp;gt;&lt;/i&gt;&lt;br/&gt;&lt;b&gt;CityOfficeService&lt;/b&gt;&lt;/p&gt;&lt;hr size=&quot;1&quot;/&gt;&lt;p style=&quot;margin:0 0 0 4px;line-height:1.6;&quot;&gt;+ updateCityOffice(CityOffice): CityOffice&lt;br/&gt;+ listAll(): List&amp;lt;CityOffice&amp;gt;&lt;br/&gt;+ createCityOffice(CityOffice): CityOffice&lt;br/&gt;+ fetch(Long): CityOffice&lt;br/&gt;+ findByCityOfficeEmail(String): Optional&amp;lt;CityOffice&amp;gt;&lt;br/&gt;+ deleteCityOffice(long): CityOffice&lt;/p&gt;" style="verticalAlign=top;align=left;overflow=fill;fontSize=14;fontFamily=Helvetica;html=1;rounded=0;shadow=0;comic=0;labelBackgroundColor=none;strokeWidth=1;" parent="1" vertex="1">
          <mxGeometry x="-357" y="90" width="364" height="183" as="geometry" />
        </mxCell>
        <mxCell id="node23" value="&lt;p style=&quot;margin:0px;margin-top:4px;text-align:center;&quot;&gt;&lt;i&gt;&amp;lt;&amp;lt;interface&amp;gt;&amp;gt;&lt;/i&gt;&lt;br/&gt;&lt;b&gt;FeedbackService&lt;/b&gt;&lt;/p&gt;&lt;hr size=&quot;1&quot;/&gt;&lt;p style=&quot;margin:0 0 0 4px;line-height:1.6;&quot;&gt;+ createFeedback(Long, Timestamp): Feedback&lt;br/&gt;+ updateService(Long, String): void&lt;/p&gt;" style="verticalAlign=top;align=left;overflow=fill;fontSize=14;fontFamily=Helvetica;html=1;rounded=0;shadow=0;comic=0;labelBackgroundColor=none;strokeWidth=1;" parent="1" vertex="1">
          <mxGeometry x="173" y="290" width="331" height="109" as="geometry" />
        </mxCell>
        <mxCell id="node47" value="&lt;p style=&quot;margin:0px;margin-top:4px;text-align:center;&quot;&gt;&lt;i&gt;&amp;lt;&amp;lt;interface&amp;gt;&amp;gt;&lt;/i&gt;&lt;br/&gt;&lt;b&gt;IStorageService&lt;/b&gt;&lt;/p&gt;&lt;hr size=&quot;1&quot;/&gt;&lt;p style=&quot;margin:0 0 0 4px;line-height:1.6;&quot;&gt;+ saveImage(MultipartFile): String&lt;/p&gt;" style="verticalAlign=top;align=left;overflow=fill;fontSize=14;fontFamily=Helvetica;html=1;rounded=0;shadow=0;comic=0;labelBackgroundColor=none;strokeWidth=1;" parent="1" vertex="1">
          <mxGeometry x="-75" y="962" width="243" height="79" as="geometry" />
        </mxCell>
        <mxCell id="node34" value="&lt;p style=&quot;margin:0px;margin-top:4px;text-align:center;&quot;&gt;&lt;i&gt;&amp;lt;&amp;lt;interface&amp;gt;&amp;gt;&lt;/i&gt;&lt;br/&gt;&lt;b&gt;ImageService&lt;/b&gt;&lt;/p&gt;&lt;hr size=&quot;1&quot;/&gt;&lt;p style=&quot;margin:0 0 0 4px;line-height:1.6;&quot;&gt;+ fillImages(List&amp;lt;Image&amp;gt;): List&amp;lt;Image&amp;gt;&lt;br/&gt;+ createImage(Image): Image&lt;br/&gt;+ listAllId(Long): List&amp;lt;Image&amp;gt;&lt;/p&gt;" style="verticalAlign=top;align=left;overflow=fill;fontSize=14;fontFamily=Helvetica;html=1;rounded=0;shadow=0;comic=0;labelBackgroundColor=none;strokeWidth=1;" parent="1" vertex="1">
          <mxGeometry x="177" y="60" width="274" height="139" as="geometry" />
        </mxCell>
        <mxCell id="node27" value="&lt;p style=&quot;margin:0px;margin-top:4px;text-align:center;&quot;&gt;&lt;b&gt;LoginController&lt;/b&gt;&lt;/p&gt;&lt;hr size=&quot;1&quot;/&gt;&lt;p style=&quot;margin:0 0 0 4px;line-height:1.6;&quot;&gt;+ getLoginPage(HttpSession): String&lt;/p&gt;" style="verticalAlign=top;align=left;overflow=fill;fontSize=14;fontFamily=Helvetica;html=1;rounded=0;shadow=0;comic=0;labelBackgroundColor=none;strokeWidth=1;fillColor=#fff2cc;strokeColor=#d6b656;" parent="1" vertex="1">
          <mxGeometry x="-410" y="750" width="262" height="68" as="geometry" />
        </mxCell>
        <mxCell id="node32" value="&lt;p style=&quot;margin:0px;margin-top:4px;text-align:center;&quot;&gt;&lt;b&gt;OfficeController&lt;/b&gt;&lt;/p&gt;&lt;hr size=&quot;1&quot;/&gt;&lt;p style=&quot;margin:0 0 0 4px;line-height:1.6;&quot;&gt;+ listOffices(): List&amp;lt;CityOffice&amp;gt;&lt;br/&gt;+ createOffice(CityOffice): CityOffice&lt;br/&gt;+ getCityOffice(long): CityOffice&lt;br/&gt;+ deleteCityOffice(long): CityOffice&lt;br/&gt;+ updateCityOffice(long, CityOffice): CityOffice&lt;/p&gt;" style="verticalAlign=top;align=left;overflow=fill;fontSize=14;fontFamily=Helvetica;html=1;rounded=0;shadow=0;comic=0;labelBackgroundColor=none;strokeWidth=1;fillColor=#fff2cc;strokeColor=#d6b656;" parent="1" vertex="1">
          <mxGeometry x="177" y="510" width="327" height="159" as="geometry" />
        </mxCell>
        <mxCell id="node13" value="&lt;p style=&quot;margin:0px;margin-top:4px;text-align:center;&quot;&gt;&lt;b&gt;ReportController&lt;/b&gt;&lt;/p&gt;&lt;hr size=&quot;1&quot;/&gt;&lt;p style=&quot;margin:0 0 0 4px;line-height:1.6;&quot;&gt;+ listReports(HttpSession): List&amp;lt;Report&amp;gt;&lt;br/&gt;+ uploadedImages(List&amp;lt;Image&amp;gt;): List&amp;lt;Image&amp;gt;&lt;br/&gt;+ changeStatus(Long, String): void&lt;br/&gt;+ createReport(Report, HttpSession): void&lt;br/&gt;+ listImagesForRepordID(Long): List&amp;lt;Image&amp;gt;&lt;br/&gt;+ getReport(Long): Report&lt;br/&gt;+ uploadImage(MultipartFile): String&lt;/p&gt;" style="verticalAlign=top;align=left;overflow=fill;fontSize=14;fontFamily=Helvetica;html=1;rounded=0;shadow=0;comic=0;labelBackgroundColor=none;strokeWidth=1;fillColor=#fff2cc;strokeColor=#d6b656;" parent="1" vertex="1">
          <mxGeometry x="-270" y="470" width="318" height="207" as="geometry" />
        </mxCell>
        <mxCell id="node0" value="&lt;p style=&quot;margin:0px;margin-top:4px;text-align:center;&quot;&gt;&lt;i&gt;&amp;lt;&amp;lt;interface&amp;gt;&amp;gt;&lt;/i&gt;&lt;br/&gt;&lt;b&gt;ReportGroupService&lt;/b&gt;&lt;/p&gt;&lt;hr size=&quot;1&quot;/&gt;&lt;p style=&quot;margin:0 0 0 4px;line-height:1.6;&quot;&gt;+ createReportGroup(): ReportGroup&lt;/p&gt;" style="verticalAlign=top;align=left;overflow=fill;fontSize=14;fontFamily=Helvetica;html=1;rounded=0;shadow=0;comic=0;labelBackgroundColor=none;strokeWidth=1;" parent="1" vertex="1">
          <mxGeometry x="-384" y="962" width="264" height="79" as="geometry" />
        </mxCell>
        <mxCell id="node10" value="&lt;p style=&quot;margin:0px;margin-top:4px;text-align:center;&quot;&gt;&lt;i&gt;&amp;lt;&amp;lt;interface&amp;gt;&amp;gt;&lt;/i&gt;&lt;br/&gt;&lt;b&gt;ReportService&lt;/b&gt;&lt;/p&gt;&lt;hr size=&quot;1&quot;/&gt;&lt;p style=&quot;margin:0 0 0 4px;line-height:1.6;&quot;&gt;+ listAllforUsers(long): List&amp;lt;Report&amp;gt;&lt;br/&gt;+ createReport(Report): Report&lt;br/&gt;+ getReport(Long): Report&lt;br/&gt;+ findByAttributes(Long, Timestamp, Timestamp, String): List&amp;lt;Report&amp;gt;&lt;br/&gt;+ listAllforOffice(long): List&amp;lt;Report&amp;gt;&lt;br/&gt;+ findByUserId(Long): Optional&amp;lt;Report&amp;gt;&lt;/p&gt;" style="verticalAlign=top;align=left;overflow=fill;fontSize=14;fontFamily=Helvetica;html=1;rounded=0;shadow=0;comic=0;labelBackgroundColor=none;strokeWidth=1;" parent="1" vertex="1">
          <mxGeometry x="560" y="216" width="474" height="183" as="geometry" />
        </mxCell>
        <mxCell id="node41" value="&lt;p style=&quot;margin:0px;margin-top:4px;text-align:center;&quot;&gt;&lt;b&gt;RestExceptionHandler&lt;/b&gt;&lt;/p&gt;&lt;hr size=&quot;1&quot;/&gt;&lt;p style=&quot;margin:0 0 0 4px;line-height:1.6;&quot;&gt;+ handleRequestDenied(Exception, WebRequest): ResponseEntity&amp;lt;?&amp;gt;&lt;br/&gt;# handleIllegalArgument(Exception, WebRequest): ResponseEntity&amp;lt;?&amp;gt;&lt;/p&gt;" style="verticalAlign=top;align=left;overflow=fill;fontSize=14;fontFamily=Helvetica;html=1;rounded=0;shadow=0;comic=0;labelBackgroundColor=none;strokeWidth=1;fillColor=#fff2cc;strokeColor=#d6b656;" parent="1" vertex="1">
          <mxGeometry x="570" y="575" width="474" height="94" as="geometry" />
        </mxCell>
        <mxCell id="node6" value="&lt;p style=&quot;margin:0px;margin-top:4px;text-align:center;&quot;&gt;&lt;b&gt;ServerApplication&lt;/b&gt;&lt;/p&gt;&lt;hr size=&quot;1&quot;/&gt;&lt;p style=&quot;margin:0 0 0 4px;line-height:1.6;&quot;&gt;+ corsConfigurer(): WebMvcConfigurer&lt;br/&gt;+ main(String[]): void&lt;/p&gt;" style="verticalAlign=top;align=left;overflow=fill;fontSize=14;fontFamily=Helvetica;html=1;rounded=0;shadow=0;comic=0;labelBackgroundColor=none;strokeWidth=1;fillColor=#f8cecc;strokeColor=#b85450;" parent="1" vertex="1">
          <mxGeometry x="-449" y="1100" width="277" height="94" as="geometry" />
        </mxCell>
        <mxCell id="node42" value="&lt;p style=&quot;margin:0px;margin-top:4px;text-align:center;&quot;&gt;&lt;b&gt;ServerApplicationTests&lt;/b&gt;&lt;/p&gt;&lt;hr size=&quot;1&quot;/&gt;&lt;p style=&quot;margin:0 0 0 4px;line-height:1.6;&quot;&gt;~ contextLoads(): void&lt;/p&gt;" style="verticalAlign=top;align=left;overflow=fill;fontSize=14;fontFamily=Helvetica;html=1;rounded=0;shadow=0;comic=0;labelBackgroundColor=none;strokeWidth=1;fillColor=#f8cecc;strokeColor=#b85450;" parent="1" vertex="1">
          <mxGeometry x="-780" y="1120" width="231" height="68" as="geometry" />
        </mxCell>
        <mxCell id="node22" value="&lt;p style=&quot;margin:0px;margin-top:4px;text-align:center;&quot;&gt;&lt;b&gt;UserCredentials&lt;/b&gt;&lt;/p&gt;&lt;hr size=&quot;1&quot;/&gt;" style="verticalAlign=top;align=left;overflow=fill;fontSize=14;fontFamily=Helvetica;html=1;rounded=0;shadow=0;comic=0;labelBackgroundColor=none;strokeWidth=1;" parent="1" vertex="1">
          <mxGeometry x="-760" y="390" width="174" height="30" as="geometry" />
        </mxCell>
        <mxCell id="node43" value="&lt;p style=&quot;margin:0px;margin-top:4px;text-align:center;&quot;&gt;&lt;b&gt;UsersController&lt;/b&gt;&lt;/p&gt;&lt;hr size=&quot;1&quot;/&gt;&lt;p style=&quot;margin:0 0 0 4px;line-height:1.6;&quot;&gt;+ createUser(Users): Users&lt;br/&gt;+ deleteUser(long): Users&lt;br/&gt;+ listUsers(String, String): List&amp;lt;Users&amp;gt;&lt;br/&gt;+ getUser(long): Users&lt;br/&gt;+ updateUser(long, Users): Users&lt;/p&gt;" style="verticalAlign=top;align=left;overflow=fill;fontSize=14;fontFamily=Helvetica;html=1;rounded=0;shadow=0;comic=0;labelBackgroundColor=none;strokeWidth=1;fillColor=#fff2cc;strokeColor=#d6b656;" parent="1" vertex="1">
          <mxGeometry x="-780" y="704.5" width="276" height="159" as="geometry" />
        </mxCell>
        <mxCell id="node30" value="&lt;p style=&quot;margin:0px;margin-top:4px;text-align:center;&quot;&gt;&lt;i&gt;&amp;lt;&amp;lt;interface&amp;gt;&amp;gt;&lt;/i&gt;&lt;br/&gt;&lt;b&gt;UsersService&lt;/b&gt;&lt;/p&gt;&lt;hr size=&quot;1&quot;/&gt;&lt;p style=&quot;margin:0 0 0 4px;line-height:1.6;&quot;&gt;+ createUser(Users): Users&lt;br/&gt;+ deleteUser(long): Users&lt;br/&gt;+ findByEmail(String): Optional&amp;lt;Users&amp;gt;&lt;br/&gt;+ findByUserName(String): Optional&amp;lt;Users&amp;gt;&lt;br/&gt;+ updateUser(Users): Users&lt;br/&gt;+ fetch(long): Users&lt;br/&gt;+ listAll(): List&amp;lt;Users&amp;gt;&lt;br/&gt;+ findByUserId(long): Optional&amp;lt;Users&amp;gt;&lt;/p&gt;" style="verticalAlign=top;align=left;overflow=fill;fontSize=14;fontFamily=Helvetica;html=1;rounded=0;shadow=0;comic=0;labelBackgroundColor=none;strokeWidth=1;" parent="1" vertex="1">
          <mxGeometry x="-760" y="90" width="311" height="231" as="geometry" />
        </mxCell>
        <mxCell id="srswjajLVFbAQ137nC5M-2" value="Use" style="endArrow=open;endSize=12;dashed=1;html=1;rounded=0;entryX=0.5;entryY=1;entryDx=0;entryDy=0;" edge="1" parent="1" target="node22">
          <mxGeometry width="160" relative="1" as="geometry">
            <mxPoint x="-670" y="530" as="sourcePoint" />
            <mxPoint x="230" y="460" as="targetPoint" />
          </mxGeometry>
        </mxCell>
        <mxCell id="srswjajLVFbAQ137nC5M-3" value="Use" style="endArrow=open;endSize=12;dashed=1;html=1;rounded=0;exitX=0.659;exitY=0.013;exitDx=0;exitDy=0;exitPerimeter=0;entryX=0.913;entryY=0.996;entryDx=0;entryDy=0;entryPerimeter=0;" edge="1" parent="1" source="node4" target="node30">
          <mxGeometry width="160" relative="1" as="geometry">
            <mxPoint x="-750" y="430" as="sourcePoint" />
            <mxPoint x="-476" y="330" as="targetPoint" />
          </mxGeometry>
        </mxCell>
        <mxCell id="srswjajLVFbAQ137nC5M-4" value="Use" style="endArrow=open;endSize=12;dashed=1;html=1;rounded=0;exitX=0.25;exitY=1;exitDx=0;exitDy=0;entryX=0.223;entryY=-0.007;entryDx=0;entryDy=0;entryPerimeter=0;" edge="1" parent="1" source="node18" target="node14">
          <mxGeometry width="160" relative="1" as="geometry">
            <mxPoint x="452" y="315" as="sourcePoint" />
            <mxPoint x="290" y="833" as="targetPoint" />
          </mxGeometry>
        </mxCell>
        <mxCell id="srswjajLVFbAQ137nC5M-5" value="Use" style="endArrow=open;endSize=12;dashed=1;html=1;rounded=0;entryX=0.019;entryY=1.011;entryDx=0;entryDy=0;entryPerimeter=0;" edge="1" parent="1" target="node7">
          <mxGeometry width="160" relative="1" as="geometry">
            <mxPoint x="-350" y="530" as="sourcePoint" />
            <mxPoint x="-250" y="390" as="targetPoint" />
          </mxGeometry>
        </mxCell>
        <mxCell id="srswjajLVFbAQ137nC5M-6" value="Use" style="endArrow=open;endSize=12;dashed=1;html=1;rounded=0;entryX=0.5;entryY=0;entryDx=0;entryDy=0;exitX=0.5;exitY=1;exitDx=0;exitDy=0;" edge="1" parent="1" source="node11" target="node48">
          <mxGeometry width="160" relative="1" as="geometry">
            <mxPoint x="-175" y="330" as="sourcePoint" />
            <mxPoint x="-300" y="270" as="targetPoint" />
          </mxGeometry>
        </mxCell>
        <mxCell id="srswjajLVFbAQ137nC5M-7" value="Use" style="endArrow=open;endSize=12;dashed=1;html=1;rounded=0;entryX=1.005;entryY=0.672;entryDx=0;entryDy=0;entryPerimeter=0;exitX=0;exitY=0.5;exitDx=0;exitDy=0;" edge="1" parent="1" source="node32" target="node7">
          <mxGeometry x="-0.023" width="160" relative="1" as="geometry">
            <mxPoint x="130" y="600" as="sourcePoint" />
            <mxPoint x="-340" y="285" as="targetPoint" />
            <Array as="points">
              <mxPoint x="130" y="590" />
              <mxPoint x="130" y="213" />
            </Array>
            <mxPoint as="offset" />
          </mxGeometry>
        </mxCell>
        <mxCell id="srswjajLVFbAQ137nC5M-10" value="Use" style="endArrow=open;endSize=12;dashed=1;html=1;rounded=0;exitX=1;exitY=0.25;exitDx=0;exitDy=0;entryX=0.75;entryY=1;entryDx=0;entryDy=0;" edge="1" parent="1" source="node13" target="node10">
          <mxGeometry width="160" relative="1" as="geometry">
            <mxPoint x="96" y="505" as="sourcePoint" />
            <mxPoint x="870" y="530" as="targetPoint" />
            <Array as="points">
              <mxPoint x="80" y="520" />
              <mxPoint x="80" y="440" />
              <mxPoint x="916" y="440" />
            </Array>
          </mxGeometry>
        </mxCell>
        <mxCell id="srswjajLVFbAQ137nC5M-11" value="Use" style="endArrow=open;endSize=12;dashed=1;html=1;rounded=0;entryX=0.75;entryY=0;entryDx=0;entryDy=0;exitX=0.541;exitY=1.01;exitDx=0;exitDy=0;exitPerimeter=0;" edge="1" parent="1" source="node13" target="node0">
          <mxGeometry width="160" relative="1" as="geometry">
            <mxPoint x="-20" y="855" as="sourcePoint" />
            <mxPoint x="-20" y="600" as="targetPoint" />
            <Array as="points">
              <mxPoint x="-100" y="780" />
              <mxPoint x="-100" y="880" />
              <mxPoint x="-186" y="880" />
            </Array>
          </mxGeometry>
        </mxCell>
        <mxCell id="srswjajLVFbAQ137nC5M-12" value="Use" style="endArrow=open;endSize=12;dashed=1;html=1;rounded=0;exitX=0.997;exitY=0.425;exitDx=0;exitDy=0;exitPerimeter=0;" edge="1" parent="1" source="node13">
          <mxGeometry x="0.2221" width="160" relative="1" as="geometry">
            <mxPoint x="150" y="555" as="sourcePoint" />
            <mxPoint x="270" y="400" as="targetPoint" />
            <Array as="points">
              <mxPoint x="100" y="558" />
              <mxPoint x="100" y="460" />
              <mxPoint x="270" y="460" />
            </Array>
            <mxPoint as="offset" />
          </mxGeometry>
        </mxCell>
        <mxCell id="srswjajLVFbAQ137nC5M-13" value="Use" style="endArrow=open;endSize=12;dashed=1;html=1;rounded=0;exitX=0.75;exitY=1;exitDx=0;exitDy=0;" edge="1" parent="1" source="node13">
          <mxGeometry width="160" relative="1" as="geometry">
            <mxPoint x="-290" y="590" as="sourcePoint" />
            <mxPoint x="-30" y="960" as="targetPoint" />
          </mxGeometry>
        </mxCell>
        <mxCell id="srswjajLVFbAQ137nC5M-14" value="Use" style="endArrow=open;endSize=12;dashed=1;html=1;rounded=0;exitX=0.934;exitY=-0.005;exitDx=0;exitDy=0;exitPerimeter=0;entryX=0;entryY=0.5;entryDx=0;entryDy=0;" edge="1" parent="1" source="node13" target="node34">
          <mxGeometry x="-0.2223" y="-1" width="160" relative="1" as="geometry">
            <mxPoint x="-280" y="600" as="sourcePoint" />
            <mxPoint x="30" y="120" as="targetPoint" />
            <Array as="points">
              <mxPoint x="30" y="130" />
            </Array>
            <mxPoint as="offset" />
          </mxGeometry>
        </mxCell>
        <mxCell id="srswjajLVFbAQ137nC5M-15" value="Use" style="endArrow=open;endSize=12;dashed=1;html=1;rounded=0;entryX=0;entryY=0.5;entryDx=0;entryDy=0;exitX=0;exitY=0.25;exitDx=0;exitDy=0;" edge="1" parent="1" source="node43" target="node30">
          <mxGeometry width="160" relative="1" as="geometry">
            <mxPoint x="-830" y="455" as="sourcePoint" />
            <mxPoint x="-830" y="200" as="targetPoint" />
            <Array as="points">
              <mxPoint x="-820" y="744" />
              <mxPoint x="-820" y="206" />
            </Array>
          </mxGeometry>
        </mxCell>
      </root>
    </mxGraphModel>
  </diagram>
</mxfile>
